<svg xmlns="http://www.w3.org/2000/svg" width="96.587" height="96.479" viewBox="0 0 96.587 96.479">
  <g id="airplane-svgrepo-com_2_" data-name="airplane-svgrepo-com (2)" transform="matrix(0.766, -0.643, 0.643, 0.766, -2.075, 41.85)">
    <path id="Path_44" data-name="Path 44" d="M68.828,41.346a3.942,3.942,0,0,0-2.455-3.415l-26.12-9.979c-.031-14.634-1.821-24.724-5.776-24.724S28.733,13.318,28.7,27.952L2.582,37.931A3.939,3.939,0,0,0,.127,41.346L0,44.808A1.671,1.671,0,0,0,.663,46.18a2.093,2.093,0,0,0,1.6.411S22.686,43.58,28.93,42.61c.249,11.046.541,17.188.541,17.188L22.56,63.053a2.127,2.127,0,0,0-1.348,1.98v1.275a2.129,2.129,0,0,0,2.248,2.126l8.731-.494c.28,1.944,1.2,3.373,2.286,3.373s2-1.429,2.286-3.373l8.731.494a2.129,2.129,0,0,0,2.248-2.126V65.033a2.127,2.127,0,0,0-1.348-1.98L39.482,59.8s.294-6.143.544-17.188c6.243.97,26.671,3.981,26.671,3.981a2.09,2.09,0,0,0,1.6-.411,1.677,1.677,0,0,0,.662-1.372Z" transform="translate(0)" fill="#accdee"/>
  </g>
</svg>
