<svg id="car-limousine-svgrepo-com" xmlns="http://www.w3.org/2000/svg" width="122.874" height="36.61" viewBox="0 0 122.874 36.61">
  <path id="Path_35" data-name="Path 35" d="M0,23.97c.29-1.63,1.11-2.63,2.72-2.69a6.843,6.843,0,0,1,.92-4.31A5.957,5.957,0,0,1,4.97,15.5c1.87-1.52,3.99-1.68,6.3-2.1q3.36-.615,6.71-1.01c2.7-.32,5.41-.53,8.12-.61,1.25-.04.95.03,1.95-.73A87.881,87.881,0,0,1,43.77,1.53,17.338,17.338,0,0,1,51.09,0H85.82A18.941,18.941,0,0,1,95.7,2.56l10.58,8.14c3.53.23,7.05.46,10.58.7,2.16-.06,3.81.68,4.44,3.02v7.15c2.99.77,1.04,7.66-.3,9.17-1.18,1.33-2.26,1.18-3.84,1.18h-9.43c1.81-13.63-12.08-16.54-17.8-9.12-1.89,2.45-2.18,5.79-1.39,9.72H28.45c2.19-10.1-4.33-14.21-10.33-13.62-7.72.76-9.75,6.95-8.42,13.74H3.01C1.11,32.72.22,31.2,0,28.63V23.97Zm20.04,1.3v2.76H22.8a3.791,3.791,0,0,0-2.76-2.76Zm2.76,4.56H20.04v2.76a3.76,3.76,0,0,0,2.76-2.76ZM19.15,32.7h0Zm-.91-.11V29.83H15.48a3.76,3.76,0,0,0,2.76,2.76Zm-2.76-4.56h2.76V25.27a3.775,3.775,0,0,0-2.76,2.76ZM98.8,25.27v2.76h2.76a3.791,3.791,0,0,0-2.76-2.76Zm2.87,3.65v0Zm-.1.91H98.8v2.76a3.788,3.788,0,0,0,2.77-2.76ZM97.92,32.7h0Zm-.91-.11V29.83H94.25a3.76,3.76,0,0,0,2.76,2.76Zm-2.77-4.56H97V25.27a3.807,3.807,0,0,0-2.76,2.76ZM33.07,10.7V14H53.16L54.72,2.52H50.14c-3.65.43-4.24.55-7.55,2.31-2.73,1.45-5.22,3.04-7.87,4.77-.55.36-1.11.73-1.65,1.1ZM77.54,2.39,75.81,14.01H87.34l2.37-2.57L91,10.04c-.12-6.79-.93-7.55-6.95-7.58l-6.51-.07Zm-19.46,0L56.35,14.01H71.72L73.24,2.48,58.08,2.39ZM19.14,21.27a7.67,7.67,0,1,1-7.67,7.67,7.671,7.671,0,0,1,7.67-7.67Zm78.76,0a7.67,7.67,0,1,1-7.67,7.67,7.671,7.671,0,0,1,7.67-7.67Z" fill="#fff" fill-rule="evenodd"/>
</svg>
