<svg xmlns="http://www.w3.org/2000/svg" width="158.7" height="158.7" viewBox="0 0 158.7 158.7">
  <path id="telegram-svgrepo-com_1_" data-name="telegram-svgrepo-com (1)" d="M112.7,48.524h.116a5.123,5.123,0,0,1,2.961.933l-.016-.011a3.332,3.332,0,0,1,1.122,2.123v.016a13.453,13.453,0,0,1,.163,2.134c0,.342-.011.68-.037,1.017v-.047c-1.186,12.482-6.328,42.752-8.941,56.725-1.106,5.917-3.283,7.9-5.39,8.088-4.579.427-8.056-3.024-12.493-5.933-6.944-4.558-10.87-7.392-17.609-11.834-7.793-5.127-2.74-7.956,1.7-12.561,1.164-1.212,21.35-19.574,21.745-21.239a1.6,1.6,0,0,0,.032-.327,1.625,1.625,0,0,0-.4-1.07h0a1.789,1.789,0,0,0-.975-.279,1.917,1.917,0,0,0-.674.126l.011-.005q-1.043.237-33.279,21.992a14.781,14.781,0,0,1-8.53,3.156h-.032A55.548,55.548,0,0,1,39.516,88.51l.39.126c-4.942-1.612-8.868-2.461-8.53-5.19q.269-2.129,5.87-4.357,34.5-15.032,46.014-19.816a119.219,119.219,0,0,1,28.6-10.591l.827-.163ZM80.071,1.025a79.343,79.343,0,1,0,.379,0h-.379Z" transform="translate(-0.905 -1.025)" fill="#1a68a6"/>
</svg>
