<svg xmlns="http://www.w3.org/2000/svg" width="142.289" height="143.259" viewBox="0 0 142.289 143.259">
  <g id="whatsapp-svgrepo-com" transform="translate(-0.59 -0.5)">
    <path id="Path_160" data-name="Path 160" d="M72.728,52.432c-1.815-.86-10.505-5.157-12.129-5.826s-2.77-.86-4.011.955S52,53.292,50.953,54.534s-2.006,1.337-3.82,0A48.994,48.994,0,0,1,32.9,45.747a50.139,50.139,0,0,1-9.55-12.32c-1.051-1.719,0-2.674.764-3.629s1.719-2.006,2.674-3.056a13.275,13.275,0,0,0,1.719-2.961,3.629,3.629,0,0,0,0-3.152c0-.86-4.011-9.55-5.539-13.084s-2.865-3.056-3.916-3.056h-3.82a6.876,6.876,0,0,0-4.775,2.2,20.056,20.056,0,0,0-6.208,14.8,34.286,34.286,0,0,0,7.163,18.623A79.46,79.46,0,0,0,41.881,66.854c4.2,1.815,7.449,2.865,10.028,3.725a24.163,24.163,0,0,0,11.174.669,18.432,18.432,0,0,0,12.034-8.4,15.949,15.949,0,0,0,1.051-8.4C75.689,53.77,74.543,53.292,72.728,52.432Z" transform="translate(31.293 33.928)" fill="#1a68a6"/>
    <path id="Path_161" data-name="Path 161" d="M121.88,21.322A70.291,70.291,0,0,0,71.359.5,71.055,71.055,0,0,0,10.14,106.989L.59,143.759l37.629-9.55a70.673,70.673,0,0,0,33.9,8.6h-.764A71.055,71.055,0,0,0,121.88,21.322ZM71.359,130.579a58.449,58.449,0,0,1-30.084-8.309l-2.1-1.242-22.348,5.826,5.921-21.775-1.337-2.2a58.974,58.974,0,1,1,49.949,27.7Z" transform="translate(0 0)" fill="#1a68a6"/>
  </g>
</svg>
